<svg width="570" height="572" viewBox="0 0 570 572" fill="none" xmlns="http://www.w3.org/2000/svg">
<path d="M264.74 15.3681C270.471 -5.12269 299.53 -5.12269 305.215 15.3681L347.122 165.261C355.047 193.552 377.075 215.657 405.282 223.638L554.688 265.739C575.104 271.523 575.104 300.487 554.688 306.271L405.282 348.373C377.075 356.354 355.047 378.458 347.122 406.705L305.215 556.632C299.529 577.123 270.471 577.123 264.74 556.632L222.878 406.705C214.953 378.458 192.925 356.353 164.718 348.373L15.312 306.271C-5.10399 300.487 -5.10399 271.523 15.312 265.739L164.718 223.638C192.925 215.657 214.953 193.552 222.878 165.261L264.74 15.3681Z" fill="white"/>
</svg>
